<svg width="630" height="440" viewBox="0 0 630 440" fill="none" xmlns="http://www.w3.org/2000/svg">
<path d="M125.523 440C194.848 440 251.047 435.715 251.047 430.43C251.047 425.145 194.848 420.86 125.523 420.86C56.1987 420.86 0 425.145 0 430.43C0 435.715 56.1987 440 125.523 440Z" fill="#E6E6E6"/>
<path d="M95.9477 97.6283C117.793 88.3014 145.001 94.2108 171.572 98.3122C171.82 93.3454 174.817 87.3006 171.677 83.8355C167.863 79.6257 168.214 75.2024 170.509 70.7536C176.379 59.3775 167.969 47.2726 159.479 37.2075C157.565 34.944 155.147 33.1655 152.419 32.0166C149.692 30.8676 146.734 30.3805 143.784 30.5949L128.056 31.7226C124.229 31.997 120.576 33.4382 117.587 35.8534C114.598 38.2685 112.415 41.5424 111.33 45.237C107.575 50.3642 105.565 55.4772 106.83 60.5636C101.205 64.4225 100.26 69.0806 102.788 74.3318C104.931 77.6381 104.908 80.8565 102.69 83.9858C99.7772 87.9755 97.5461 92.4241 96.0883 97.1493L95.9477 97.6283Z" fill="#2F2E41"/>
<path d="M615.071 380.373H169.847C165.887 380.373 162.09 378.794 159.291 375.984C156.491 373.173 154.918 369.362 154.918 365.387C316.312 346.558 474.673 346.558 630 365.387C630 369.362 628.427 373.173 625.628 375.984C622.828 378.794 619.031 380.373 615.071 380.373Z" fill="#2F2E41"/>
<path d="M630 366.269L154.918 365.387L209.978 272.388L210.242 271.947V66.9862C210.242 64.4984 210.73 62.035 211.678 59.7365C212.626 57.4381 214.016 55.3496 215.769 53.5905C217.521 51.8314 219.602 50.436 221.891 49.4841C224.181 48.5321 226.635 48.0423 229.113 48.0425H553.17C555.648 48.0423 558.103 48.5321 560.392 49.4841C562.682 50.436 564.762 51.8314 566.515 53.5905C568.267 55.3496 569.657 57.4381 570.606 59.7365C571.554 62.035 572.042 64.4984 572.042 66.9862V273.357L630 366.269Z" fill="#3F3D56"/>
<path d="M228.683 61.2652C227.053 61.267 225.491 61.9177 224.338 63.0745C223.186 64.2313 222.538 65.7998 222.536 67.4358V254.317C222.538 255.952 223.186 257.521 224.339 258.678C225.491 259.834 227.053 260.485 228.683 260.487H556.235C557.865 260.485 559.427 259.834 560.579 258.678C561.732 257.521 562.38 255.952 562.382 254.317V67.4358C562.38 65.7998 561.732 64.2314 560.58 63.0746C559.427 61.9178 557.865 61.2671 556.235 61.2652H228.683Z" fill="white"/>
<path d="M230.056 285.17C229.552 285.17 229.059 285.316 228.635 285.588C228.211 285.861 227.873 286.25 227.662 286.709L210.696 323.732C210.512 324.135 210.431 324.578 210.461 325.021C210.492 325.463 210.633 325.891 210.871 326.264C211.11 326.638 211.438 326.945 211.825 327.158C212.213 327.371 212.648 327.482 213.089 327.482H569.871C570.32 327.482 570.762 327.367 571.154 327.147C571.546 326.928 571.876 326.611 572.112 326.228C572.348 325.844 572.483 325.407 572.503 324.956C572.523 324.506 572.428 324.058 572.227 323.655L553.786 286.631C553.568 286.191 553.232 285.821 552.816 285.563C552.4 285.304 551.919 285.168 551.43 285.17H230.056Z" fill="#2F2E41"/>
<path d="M391.142 58.1799C393.324 58.1799 395.093 56.4039 395.093 54.2131C395.093 52.0222 393.324 50.2462 391.142 50.2462C388.959 50.2462 387.19 52.0222 387.19 54.2131C387.19 56.4039 388.959 58.1799 391.142 58.1799Z" fill="white"/>
<path d="M356.073 334.534C355.494 334.535 354.931 334.727 354.471 335.081C354.012 335.434 353.681 335.93 353.53 336.491L349.274 352.358C349.169 352.75 349.155 353.161 349.233 353.559C349.312 353.958 349.48 354.332 349.726 354.655C349.972 354.977 350.289 355.238 350.651 355.417C351.014 355.597 351.413 355.691 351.817 355.691H432.751C433.171 355.691 433.585 355.59 433.958 355.397C434.332 355.203 434.654 354.923 434.897 354.58C435.141 354.236 435.299 353.839 435.358 353.422C435.418 353.005 435.378 352.579 435.24 352.181L429.769 336.314C429.589 335.794 429.253 335.344 428.807 335.025C428.361 334.706 427.827 334.534 427.279 334.534H356.073Z" fill="#2F2E41"/>
<path d="M572.042 268.862V272.387H209.978L210.251 271.947V268.862H572.042Z" fill="#2F2E41"/>
<path d="M561.943 123.412C595.892 123.412 623.414 95.7852 623.414 61.7059C623.414 27.6267 595.892 0 561.943 0C527.994 0 500.472 27.6267 500.472 61.7059C500.472 95.7852 527.994 123.412 561.943 123.412Z" fill="#FF9E00"/>
<path d="M587.409 88.5921H536.476C535.545 88.5912 534.652 88.2194 533.994 87.5583C533.335 86.8973 532.965 86.0009 532.964 85.066V54.2131C532.965 53.2782 533.335 52.3819 533.994 51.7209C534.652 51.0598 535.545 50.688 536.476 50.687H587.409C588.341 50.688 589.234 51.0598 589.892 51.7209C590.551 52.3819 590.921 53.2782 590.922 54.2131V85.066C590.921 86.0009 590.551 86.8972 589.892 87.5583C589.234 88.2194 588.341 88.5912 587.409 88.5921ZM536.476 54.2131V85.066H587.412L587.409 54.2131L536.476 54.2131Z" fill="white"/>
<path d="M577.75 54.2131H546.136V40.1089C546.136 29.8931 552.784 22.4786 561.943 22.4786C571.102 22.4786 577.75 29.8931 577.75 40.1089L577.75 54.2131ZM549.649 50.687H574.237V40.1089C574.237 31.8046 569.182 26.0046 561.943 26.0046C554.704 26.0046 549.649 31.8046 549.649 40.1089L549.649 50.687Z" fill="white"/>
<path d="M561.943 72.2841C563.883 72.2841 565.456 70.7054 565.456 68.758C565.456 66.8106 563.883 65.232 561.943 65.232C560.003 65.232 558.43 66.8106 558.43 68.758C558.43 70.7054 560.003 72.2841 561.943 72.2841Z" fill="white"/>
<path d="M519.031 197.099H265.887C264.644 197.098 263.453 196.601 262.574 195.719C261.695 194.837 261.201 193.641 261.199 192.393V129.359C261.201 128.111 261.695 126.915 262.574 126.033C263.453 125.151 264.644 124.655 265.887 124.653H519.031C520.274 124.655 521.465 125.151 522.344 126.033C523.223 126.915 523.717 128.111 523.719 129.359V192.393C523.717 193.641 523.223 194.837 522.344 195.719C521.465 196.601 520.274 197.098 519.031 197.099ZM265.887 126.536C265.141 126.536 264.426 126.834 263.899 127.363C263.372 127.893 263.075 128.61 263.074 129.359V192.393C263.075 193.142 263.372 193.86 263.899 194.389C264.426 194.918 265.141 195.216 265.887 195.217H519.031C519.777 195.216 520.492 194.918 521.019 194.389C521.546 193.86 521.843 193.142 521.844 192.393V129.359C521.843 128.61 521.546 127.893 521.019 127.363C520.492 126.834 519.777 126.536 519.031 126.536L265.887 126.536Z" fill="#E6E6E6"/>
<path d="M305.22 177.626C315.767 177.626 324.316 169.044 324.316 158.458C324.316 147.871 315.767 139.289 305.22 139.289C294.674 139.289 286.125 147.871 286.125 158.458C286.125 169.044 294.674 177.626 305.22 177.626Z" fill="#E6E6E6"/>
<path d="M349.323 145.678C348.904 145.678 348.49 145.76 348.103 145.92C347.716 146.08 347.365 146.316 347.069 146.612C346.773 146.909 346.538 147.261 346.378 147.649C346.218 148.037 346.135 148.453 346.135 148.873C346.135 149.293 346.218 149.709 346.378 150.097C346.538 150.485 346.773 150.837 347.069 151.134C347.365 151.431 347.716 151.666 348.103 151.826C348.49 151.986 348.904 152.069 349.323 152.068H499.361C500.205 152.068 501.015 151.731 501.611 151.132C502.208 150.533 502.544 149.72 502.544 148.873C502.544 148.026 502.208 147.213 501.611 146.614C501.015 146.015 500.205 145.678 499.361 145.678H349.323Z" fill="#E6E6E6"/>
<path d="M349.323 164.847C348.479 164.847 347.669 165.184 347.072 165.783C346.475 166.382 346.14 167.195 346.14 168.042C346.14 168.889 346.475 169.702 347.072 170.301C347.669 170.9 348.479 171.237 349.323 171.237H413.885C414.729 171.237 415.538 170.9 416.135 170.301C416.732 169.702 417.067 168.889 417.067 168.042C417.067 167.195 416.732 166.382 416.135 165.783C415.538 165.184 414.729 164.847 413.885 164.847H349.323Z" fill="#E6E6E6"/>
<path d="M209.355 166.139L162.56 191.113L161.967 170.302C177.241 167.742 191.773 163.286 205.209 156.031L210.103 143.893C210.636 142.571 211.503 141.41 212.618 140.525C213.733 139.64 215.059 139.062 216.464 138.847C217.869 138.631 219.306 138.786 220.633 139.297C221.96 139.807 223.133 140.655 224.035 141.758C225.355 143.371 226.015 145.427 225.881 147.511C225.747 149.594 224.829 151.548 223.313 152.977L209.355 166.139Z" fill="#FFB8B8"/>
<path d="M95.0149 310.329C94.6736 309.072 94.6011 307.757 94.8023 306.47C95.0035 305.183 95.4737 303.954 96.1822 302.862L106.462 287.026C108.893 283.28 112.624 280.575 116.93 279.434C121.237 278.294 125.811 278.8 129.767 280.854C125.447 288.236 126.049 294.712 131.259 300.34C123.171 304.303 115.696 309.419 109.065 315.528C107.855 316.356 106.465 316.882 105.011 317.062C103.557 317.242 102.081 317.07 100.706 316.562C99.3315 316.053 98.0978 315.222 97.1078 314.138C96.1179 313.054 95.4003 311.748 95.0149 310.329Z" fill="#2F2E41"/>
<path d="M211.487 289.623C209.931 292.225 207.735 294.383 205.11 295.888C202.485 297.394 199.518 298.196 196.495 298.219L128.204 298.739L125.242 281.495L155.452 272.575L129.981 252.953L157.821 220.249L208.388 267.56C211.343 270.325 213.264 274.025 213.828 278.041C214.392 282.057 213.565 286.145 211.487 289.623Z" fill="#2F2E41"/>
<path d="M117.541 407.553H101.548C87.188 308.746 72.5711 209.663 115.764 172.68L166.706 181.005L160.19 224.412L131.758 257.116L117.541 407.553Z" fill="#2F2E41"/>
<path d="M131.6 429.936C130.348 430.279 129.038 430.351 127.756 430.15C126.474 429.948 125.249 429.476 124.162 428.765L106.796 426.421C103.065 423.981 100.369 420.236 99.2328 415.913C98.0964 411.591 98.6001 406.998 100.646 403.027C108 407.364 114.451 406.759 120.057 401.529C124.019 409.557 130.545 409.067 136.778 415.831C137.603 417.047 138.127 418.442 138.307 419.902C138.486 421.361 138.315 422.843 137.809 424.223C137.302 425.602 136.474 426.841 135.394 427.835C134.314 428.829 133.014 429.549 131.6 429.936Z" fill="#2F2E41"/>
<path d="M155.452 106.678L125.834 99.5427C130.753 89.4354 131.158 78.1889 128.796 66.2442L148.936 65.6496C149.567 80.5032 151.476 94.3801 155.452 106.678Z" fill="#FFB8B8"/>
<path d="M163.592 198.908C142.031 213.656 126.797 199.413 115.172 177.437C116.787 163.99 114.172 147.898 109.327 130.412C107.173 122.7 107.977 114.457 111.582 107.311C115.186 100.165 121.328 94.6347 128.796 91.8127L154.267 102.516C175.895 120.212 180.152 139.381 172.037 159.599L163.592 198.908Z" fill="#FF9E00"/>
<path d="M101.548 121.543L77.8538 134.03L119.911 159.004L125.763 173.494C126.153 174.461 126.343 175.498 126.322 176.541C126.3 177.585 126.067 178.613 125.637 179.563C125.206 180.513 124.588 181.365 123.819 182.067C123.05 182.769 122.146 183.307 121.163 183.647C120.046 184.034 118.855 184.155 117.683 184.003C116.511 183.85 115.39 183.427 114.408 182.767C113.426 182.107 112.61 181.228 112.023 180.199C111.436 179.169 111.094 178.017 111.025 176.833L110.433 166.734L56.9793 149.027C55.1783 148.43 53.5362 147.43 52.1773 146.102C50.8184 144.774 49.7783 143.153 49.136 141.362C48.1996 138.751 48.1519 135.902 49.0004 133.261C49.8489 130.62 51.5457 128.336 53.8253 126.766L96.809 97.1642L101.548 121.543Z" fill="#FFB8B8"/>
<path d="M125.242 123.922C115.36 119.575 106.374 124.297 95.0319 128.084L93.2549 96.5696C104.517 90.544 115.255 88.9194 125.242 93.5966L125.242 123.922Z" fill="#FF9E00"/>
<path d="M137.063 81.2599C147.506 81.2599 155.972 72.7614 155.972 62.2779C155.972 51.7945 147.506 43.296 137.063 43.296C126.619 43.296 118.153 51.7945 118.153 62.2779C118.153 72.7614 126.619 81.2599 137.063 81.2599Z" fill="#FFB8B8"/>
<path d="M159.685 59.8829C140.963 61.7236 126.696 58.6499 117.579 49.8983V42.8503H158.096L159.685 59.8829Z" fill="#2F2E41"/>
</svg>
