<svg width="35" height="32" viewBox="0 0 35 32" fill="none" xmlns="http://www.w3.org/2000/svg">
<g clip-path="url(#clip0)">
<path d="M33.0683 32.0001C34.135 32.0001 35 31.2094 35 30.234V1.76612C35 0.790625 34.135 0 33.0683 0H1.9317C0.864609 0 0 0.790625 0 1.76612V30.234C0 31.2094 0.864609 32.0001 1.9317 32.0001H33.0683Z" fill="#395185"/>
<path d="M24.1493 32.0001V19.608H28.6989L29.3801 14.7786H24.1493V11.6951C24.1493 10.2969 24.5741 9.344 26.7672 9.344L29.5644 9.34288V5.0235C29.0804 4.96463 27.4201 4.83313 25.4885 4.83313C21.4556 4.83313 18.6947 7.08375 18.6947 11.217V14.7786H14.1335V19.608H18.6947V32.0001H24.1493Z" fill="white"/>
</g>
<defs>
<clipPath id="clip0">
<rect width="35" height="32" fill="white"/>
</clipPath>
</defs>
</svg>
