<svg width="20" height="23" viewBox="0 0 20 23" fill="none" xmlns="http://www.w3.org/2000/svg">
<path d="M9.125 0.146122L1.625 2.74973C0.65 3.09688 0 3.95317 0 4.92519V10.3754C0 16.2191 4.2625 21.6693 10 23C15.7375 21.6693 20 16.2191 20 10.3754V4.92519C19.9991 4.45429 19.8431 3.99485 19.5527 3.60821C19.2624 3.22156 18.8515 2.92611 18.375 2.7613L10.875 0.157694C10.3125 -0.0505947 9.6875 -0.0505947 9.125 0.146122ZM7.7875 14.6916L5.1375 12.2384C5.02177 12.1313 4.92997 12.0041 4.86734 11.8641C4.80471 11.7242 4.77247 11.5741 4.77247 11.4226C4.77247 11.2711 4.80471 11.1211 4.86734 10.9811C4.92997 10.8411 5.02177 10.714 5.1375 10.6068C5.25323 10.4997 5.39062 10.4147 5.54182 10.3567C5.69303 10.2988 5.85509 10.2689 6.01875 10.2689C6.18241 10.2689 6.34447 10.2988 6.49568 10.3567C6.64688 10.4147 6.78427 10.4997 6.9 10.6068L8.6625 12.2384L13.0875 8.14209C13.2032 8.03495 13.3406 7.94997 13.4918 7.89199C13.643 7.83401 13.8051 7.80417 13.9688 7.80417C14.1324 7.80417 14.2945 7.83401 14.4457 7.89199C14.5969 7.94997 14.7343 8.03495 14.85 8.14209C14.9657 8.24922 15.0575 8.3764 15.1202 8.51638C15.1828 8.65635 15.215 8.80637 15.215 8.95788C15.215 9.10939 15.1828 9.25941 15.1202 9.39939C15.0575 9.53936 14.9657 9.66655 14.85 9.77368L9.55 14.68C9.075 15.1429 8.275 15.1429 7.7875 14.6916Z" fill="#FF9E00"/>
</svg>
