<svg width="30" height="30" viewBox="0 0 30 30" fill="none" xmlns="http://www.w3.org/2000/svg">
<path d="M6.56248 3.75C6.38852 3.75 6.218 3.79841 6.06998 3.8898C5.92196 3.9812 5.80229 4.11197 5.72436 4.2675L1.97436 11.7675C1.89326 11.929 1.86055 12.1104 1.88018 12.2901C1.89981 12.4697 1.97093 12.6398 2.08498 12.78L14.2725 27.78C14.3604 27.8881 14.4713 27.9753 14.5971 28.0352C14.723 28.0951 14.8606 28.1262 15 28.1262C15.1394 28.1262 15.277 28.0951 15.4028 28.0352C15.5287 27.9753 15.6396 27.8881 15.7275 27.78L27.915 12.78C28.0293 12.64 28.1008 12.47 28.1208 12.2904C28.1407 12.1107 28.1083 11.9292 28.0275 11.7675L24.2775 4.2675C24.1994 4.11169 24.0794 3.98072 23.9311 3.88931C23.7827 3.7979 23.6118 3.74966 23.4375 3.75H6.56248ZM4.32936 11.25L7.14186 5.625H10.9856L9.57936 11.25H4.32936ZM4.78123 13.125H9.62436L12.6487 22.8075L4.78123 13.125ZM11.5875 13.125H18.4125L15 24.0431L11.5875 13.125ZM20.3775 13.125H25.2187L17.3512 22.8075L20.3775 13.125ZM25.6706 11.25H20.4206L19.0144 5.625H22.8581L25.6706 11.25ZM18.4875 11.25H11.5125L12.9187 5.625H17.0812L18.4875 11.25Z" fill="white"/>
</svg>
