<svg width="53" height="46" viewBox="0 0 53 46" fill="none" xmlns="http://www.w3.org/2000/svg">
<path d="M23.439 35.1562C23.439 35.9022 23.7353 36.6175 24.2627 37.145C24.7902 37.6724 25.5056 37.9688 26.2515 37.9688C26.9974 37.9688 27.7128 37.6724 28.2402 37.145C28.7677 36.6175 29.064 35.9022 29.064 35.1562C29.064 34.4103 28.7677 33.695 28.2402 33.1675C27.7128 32.6401 26.9974 32.3438 26.2515 32.3438C25.5056 32.3438 24.7902 32.6401 24.2627 33.1675C23.7353 33.695 23.439 34.4103 23.439 35.1562ZM24.3765 17.3438V28.125C24.3765 28.3828 24.5874 28.5938 24.8452 28.5938H27.6577C27.9155 28.5938 28.1265 28.3828 28.1265 28.125V17.3438C28.1265 17.0859 27.9155 16.875 27.6577 16.875H24.8452C24.5874 16.875 24.3765 17.0859 24.3765 17.3438ZM52.2495 43.125L27.8745 0.9375C27.5113 0.310547 26.8843 0 26.2515 0C25.6187 0 24.9859 0.310547 24.6284 0.9375L0.253438 43.125C-0.467265 44.3789 0.435078 45.9375 1.87648 45.9375H50.6265C52.0679 45.9375 52.9702 44.3789 52.2495 43.125ZM6.34133 41.4902L26.2515 7.02539L46.1616 41.4902H6.34133Z" fill="#FF0000"/>
</svg>
